STARTFONT 2.1
COMMENT
COMMENT  Copyright (c) 2022, Sammy L. Koch (sammykoch2004@gmail.com),
COMMENT  with Reserved Font Name: "Times9k". Version 1.1.
COMMENT  
COMMENT  This Font Software is licensed under the SIL Open Font License, Version 1.1.
FONT Times9k
SIZE 7 72 72
FONTBOUNDINGBOX 5 9 0 -2
STARTPROPERTIES 11
FOUNDRY "Fine"
FAMILY_NAME "Times9k"
WEIGHT_NAME "Book"
SLANT "R"
SETWIDTH_NAME "Book"
SPACING "c"
CHARSET_REGISTRY "ISO-8859"
CHARSET_ENCODING "1"
COPYRIGHT "Copyright (c) 2022, Sammy L. Koch"
FONT_ASCENT  7
FONT_DESCENT 2
ENDPROPERTIES
CHARS 256
STARTCHAR C000
ENCODING 0
SWIDTH 714 0
DWIDTH 5 0
BBX 0 0 0 0
BITMAP
ENDCHAR
STARTCHAR C001
ENCODING 1
SWIDTH 714 0
DWIDTH 5 0
BBX 3 5 1 0
BITMAP
a0
a0
00
e0
40
ENDCHAR
STARTCHAR C002
ENCODING 2
SWIDTH 714 0
DWIDTH 5 0
BBX 5 9 0 -2
BITMAP
f8
f8
a8
a8
f8
88
d8
f8
f8
ENDCHAR
STARTCHAR C003
ENCODING 3
SWIDTH 714 0
DWIDTH 5 0
BBX 3 5 1 0
BITMAP
a0
e0
e0
e0
40
ENDCHAR
STARTCHAR C004
ENCODING 4
SWIDTH 714 0
DWIDTH 5 0
BBX 4 4 0 1
BITMAP
60
f0
f0
60
ENDCHAR
STARTCHAR C005
ENCODING 5
SWIDTH 714 0
DWIDTH 5 0
BBX 4 7 0 0
BITMAP
60
f0
60
f0
f0
60
f0
ENDCHAR
STARTCHAR C006
ENCODING 6
SWIDTH 714 0
DWIDTH 5 0
BBX 4 5 0 0
BITMAP
60
f0
f0
60
f0
ENDCHAR
STARTCHAR C007
ENCODING 7
SWIDTH 714 0
DWIDTH 5 0
BBX 2 2 1 2
BITMAP
c0
c0
ENDCHAR
STARTCHAR C010
ENCODING 8
SWIDTH 714 0
DWIDTH 5 0
BBX 5 9 0 -2
BITMAP
f8
f8
f8
98
98
f8
f8
f8
f8
ENDCHAR
STARTCHAR C011
ENCODING 9
SWIDTH 714 0
DWIDTH 5 0
BBX 0 0 0 0
BITMAP
ENDCHAR
STARTCHAR C012
ENCODING 10
SWIDTH 714 0
DWIDTH 5 0
BBX 0 0 0 0
BITMAP
ENDCHAR
STARTCHAR C013
ENCODING 11
SWIDTH 714 0
DWIDTH 5 0
BBX 4 6 0 0
BITMAP
70
30
20
60
90
60
ENDCHAR
STARTCHAR C014
ENCODING 12
SWIDTH 714 0
DWIDTH 5 0
BBX 4 6 0 0
BITMAP
60
90
60
20
70
20
ENDCHAR
STARTCHAR C015
ENCODING 13
SWIDTH 714 0
DWIDTH 5 0
BBX 0 0 0 0
BITMAP
ENDCHAR
STARTCHAR C016
ENCODING 14
SWIDTH 714 0
DWIDTH 5 0
BBX 4 6 0 0
BITMAP
70
50
70
40
c0
c0
ENDCHAR
STARTCHAR C017
ENCODING 15
SWIDTH 714 0
DWIDTH 5 0
BBX 4 6 0 0
BITMAP
70
50
70
50
d0
d0
ENDCHAR
STARTCHAR C020
ENCODING 16
SWIDTH 714 0
DWIDTH 5 0
BBX 4 7 0 0
BITMAP
80
c0
e0
f0
e0
c0
80
ENDCHAR
STARTCHAR C021
ENCODING 17
SWIDTH 714 0
DWIDTH 5 0
BBX 4 7 0 0
BITMAP
10
30
70
f0
70
30
10
ENDCHAR
STARTCHAR C022
ENCODING 18
SWIDTH 714 0
DWIDTH 5 0
BBX 3 5 0 1
BITMAP
40
e0
40
e0
40
ENDCHAR
STARTCHAR C023
ENCODING 19
SWIDTH 714 0
DWIDTH 5 0
BBX 3 6 1 0
BITMAP
a0
a0
a0
a0
00
a0
ENDCHAR
STARTCHAR C024
ENCODING 20
SWIDTH 714 0
DWIDTH 5 0
BBX 4 7 0 -1
BITMAP
f0
d0
d0
d0
50
50
50
ENDCHAR
STARTCHAR C025
ENCODING 21
SWIDTH 714 0
DWIDTH 5 0
BBX 4 6 0 0
BITMAP
70
c0
a0
50
30
e0
ENDCHAR
STARTCHAR C026
ENCODING 22
SWIDTH 714 0
DWIDTH 5 0
BBX 4 2 0 0
BITMAP
f0
f0
ENDCHAR
STARTCHAR C027
ENCODING 23
SWIDTH 714 0
DWIDTH 5 0
BBX 3 6 1 0
BITMAP
40
e0
40
e0
40
e0
ENDCHAR
STARTCHAR C030
ENCODING 24
SWIDTH 714 0
DWIDTH 5 0
BBX 3 5 1 1
BITMAP
40
e0
40
40
40
ENDCHAR
STARTCHAR C031
ENCODING 25
SWIDTH 714 0
DWIDTH 5 0
BBX 3 5 1 1
BITMAP
40
40
40
e0
40
ENDCHAR
STARTCHAR C032
ENCODING 26
SWIDTH 714 0
DWIDTH 5 0
BBX 4 3 0 1
BITMAP
20
f0
20
ENDCHAR
STARTCHAR C033
ENCODING 27
SWIDTH 714 0
DWIDTH 5 0
BBX 4 3 0 1
BITMAP
40
f0
40
ENDCHAR
STARTCHAR C034
ENCODING 28
SWIDTH 714 0
DWIDTH 5 0
BBX 4 2 0 0
BITMAP
80
f0
ENDCHAR
STARTCHAR C035
ENCODING 29
SWIDTH 714 0
DWIDTH 5 0
BBX 4 3 0 1
BITMAP
50
f0
50
ENDCHAR
STARTCHAR C036
ENCODING 30
SWIDTH 714 0
DWIDTH 5 0
BBX 4 6 0 0
BITMAP
60
60
60
f0
f0
f0
ENDCHAR
STARTCHAR C037
ENCODING 31
SWIDTH 714 0
DWIDTH 5 0
BBX 4 6 0 0
BITMAP
f0
f0
f0
60
60
60
ENDCHAR
STARTCHAR C040
ENCODING 32
SWIDTH 714 0
DWIDTH 5 0
BBX 0 0 0 0
BITMAP
ENDCHAR
STARTCHAR C041
ENCODING 33
SWIDTH 714 0
DWIDTH 5 0
BBX 2 6 1 0
BITMAP
c0
c0
c0
c0
00
c0
ENDCHAR
STARTCHAR C042
ENCODING 34
SWIDTH 714 0
DWIDTH 5 0
BBX 4 3 0 3
BITMAP
50
50
a0
ENDCHAR
STARTCHAR C043
ENCODING 35
SWIDTH 714 0
DWIDTH 5 0
BBX 4 6 0 0
BITMAP
50
f0
50
50
f0
50
ENDCHAR
STARTCHAR C044
ENCODING 36
SWIDTH 714 0
DWIDTH 5 0
BBX 4 8 0 -1
BITMAP
20
70
a0
60
20
30
e0
20
ENDCHAR
STARTCHAR C045
ENCODING 37
SWIDTH 714 0
DWIDTH 5 0
BBX 4 5 0 0
BITMAP
90
30
60
c0
90
ENDCHAR
STARTCHAR C046
ENCODING 38
SWIDTH 714 0
DWIDTH 5 0
BBX 4 7 0 0
BITMAP
20
50
20
60
b0
90
60
ENDCHAR
STARTCHAR C047
ENCODING 39
SWIDTH 714 0
DWIDTH 5 0
BBX 2 3 1 3
BITMAP
40
40
80
ENDCHAR
STARTCHAR C050
ENCODING 40
SWIDTH 714 0
DWIDTH 5 0
BBX 2 6 2 0
BITMAP
40
80
80
80
80
40
ENDCHAR
STARTCHAR C051
ENCODING 41
SWIDTH 714 0
DWIDTH 5 0
BBX 2 6 0 0
BITMAP
80
40
40
40
40
80
ENDCHAR
STARTCHAR C052
ENCODING 42
SWIDTH 714 0
DWIDTH 5 0
BBX 3 3 1 3
BITMAP
a0
40
a0
ENDCHAR
STARTCHAR C053
ENCODING 43
SWIDTH 714 0
DWIDTH 5 0
BBX 3 3 1 2
BITMAP
40
e0
40
ENDCHAR
STARTCHAR C054
ENCODING 44
SWIDTH 714 0
DWIDTH 5 0
BBX 2 3 1 -1
BITMAP
c0
c0
80
ENDCHAR
STARTCHAR C055
ENCODING 45
SWIDTH 714 0
DWIDTH 5 0
BBX 3 1 1 3
BITMAP
e0
ENDCHAR
STARTCHAR C056
ENCODING 46
SWIDTH 714 0
DWIDTH 5 0
BBX 2 2 1 0
BITMAP
c0
c0
ENDCHAR
STARTCHAR C057
ENCODING 47
SWIDTH 714 0
DWIDTH 5 0
BBX 4 6 0 0
BITMAP
10
10
20
40
80
80
ENDCHAR
STARTCHAR C060
ENCODING 48
SWIDTH 714 0
DWIDTH 5 0
BBX 4 6 0 0
BITMAP
60
90
b0
d0
90
60
ENDCHAR
STARTCHAR C061
ENCODING 49
SWIDTH 714 0
DWIDTH 5 0
BBX 3 6 1 0
BITMAP
40
c0
40
40
40
e0
ENDCHAR
STARTCHAR C062
ENCODING 50
SWIDTH 714 0
DWIDTH 5 0
BBX 4 6 0 0
BITMAP
60
90
20
40
80
f0
ENDCHAR
STARTCHAR C063
ENCODING 51
SWIDTH 714 0
DWIDTH 5 0
BBX 4 6 0 0
BITMAP
60
90
20
10
90
60
ENDCHAR
STARTCHAR C064
ENCODING 52
SWIDTH 714 0
DWIDTH 5 0
BBX 4 6 0 0
BITMAP
60
60
a0
a0
f0
20
ENDCHAR
STARTCHAR C065
ENCODING 53
SWIDTH 714 0
DWIDTH 5 0
BBX 4 6 0 0
BITMAP
f0
80
e0
10
90
60
ENDCHAR
STARTCHAR C066
ENCODING 54
SWIDTH 714 0
DWIDTH 5 0
BBX 4 6 0 0
BITMAP
60
80
e0
90
90
60
ENDCHAR
STARTCHAR C067
ENCODING 55
SWIDTH 714 0
DWIDTH 5 0
BBX 4 6 0 0
BITMAP
f0
10
20
40
40
40
ENDCHAR
STARTCHAR C070
ENCODING 56
SWIDTH 714 0
DWIDTH 5 0
BBX 4 6 0 0
BITMAP
60
90
60
90
90
60
ENDCHAR
STARTCHAR C071
ENCODING 57
SWIDTH 714 0
DWIDTH 5 0
BBX 4 6 0 0
BITMAP
60
90
90
70
10
60
ENDCHAR
STARTCHAR C072
ENCODING 58
SWIDTH 714 0
DWIDTH 5 0
BBX 2 5 1 0
BITMAP
c0
c0
00
c0
c0
ENDCHAR
STARTCHAR C073
ENCODING 59
SWIDTH 714 0
DWIDTH 5 0
BBX 3 5 0 -1
BITMAP
60
00
60
60
c0
ENDCHAR
STARTCHAR C074
ENCODING 60
SWIDTH 714 0
DWIDTH 5 0
BBX 4 5 0 0
BITMAP
30
60
c0
60
30
ENDCHAR
STARTCHAR C075
ENCODING 61
SWIDTH 714 0
DWIDTH 5 0
BBX 4 3 0 1
BITMAP
f0
00
f0
ENDCHAR
STARTCHAR C076
ENCODING 62
SWIDTH 714 0
DWIDTH 5 0
BBX 4 5 0 0
BITMAP
c0
60
30
60
c0
ENDCHAR
STARTCHAR C077
ENCODING 63
SWIDTH 714 0
DWIDTH 5 0
BBX 4 6 0 0
BITMAP
60
90
10
60
00
40
ENDCHAR
STARTCHAR C100
ENCODING 64
SWIDTH 714 0
DWIDTH 5 0
BBX 4 6 0 0
BITMAP
60
90
b0
b0
80
60
ENDCHAR
STARTCHAR C101
ENCODING 65
SWIDTH 714 0
DWIDTH 5 0
BBX 4 6 0 0
BITMAP
60
90
f0
90
90
90
ENDCHAR
STARTCHAR C102
ENCODING 66
SWIDTH 714 0
DWIDTH 5 0
BBX 4 6 0 0
BITMAP
e0
90
e0
90
90
e0
ENDCHAR
STARTCHAR C103
ENCODING 67
SWIDTH 714 0
DWIDTH 5 0
BBX 4 6 0 0
BITMAP
60
90
80
80
90
60
ENDCHAR
STARTCHAR C104
ENCODING 68
SWIDTH 714 0
DWIDTH 5 0
BBX 4 6 0 0
BITMAP
e0
90
90
90
90
e0
ENDCHAR
STARTCHAR C105
ENCODING 69
SWIDTH 714 0
DWIDTH 5 0
BBX 4 6 0 0
BITMAP
f0
80
e0
80
80
f0
ENDCHAR
STARTCHAR C106
ENCODING 70
SWIDTH 714 0
DWIDTH 5 0
BBX 4 6 0 0
BITMAP
f0
80
e0
80
80
80
ENDCHAR
STARTCHAR C107
ENCODING 71
SWIDTH 714 0
DWIDTH 5 0
BBX 4 6 0 0
BITMAP
70
80
b0
90
90
60
ENDCHAR
STARTCHAR C110
ENCODING 72
SWIDTH 714 0
DWIDTH 5 0
BBX 4 6 0 0
BITMAP
90
90
f0
90
90
90
ENDCHAR
STARTCHAR C111
ENCODING 73
SWIDTH 714 0
DWIDTH 5 0
BBX 3 6 1 0
BITMAP
e0
40
40
40
40
e0
ENDCHAR
STARTCHAR C112
ENCODING 74
SWIDTH 714 0
DWIDTH 5 0
BBX 4 6 0 0
BITMAP
30
10
10
10
90
60
ENDCHAR
STARTCHAR C113
ENCODING 75
SWIDTH 714 0
DWIDTH 5 0
BBX 4 6 0 0
BITMAP
90
90
e0
90
90
90
ENDCHAR
STARTCHAR C114
ENCODING 76
SWIDTH 714 0
DWIDTH 5 0
BBX 4 6 0 0
BITMAP
80
80
80
80
80
f0
ENDCHAR
STARTCHAR C115
ENCODING 77
SWIDTH 714 0
DWIDTH 5 0
BBX 4 6 0 0
BITMAP
90
f0
f0
90
90
90
ENDCHAR
STARTCHAR C116
ENCODING 78
SWIDTH 714 0
DWIDTH 5 0
BBX 4 6 0 0
BITMAP
90
d0
f0
f0
b0
90
ENDCHAR
STARTCHAR C117
ENCODING 79
SWIDTH 714 0
DWIDTH 5 0
BBX 4 6 0 0
BITMAP
60
90
90
90
90
60
ENDCHAR
STARTCHAR C120
ENCODING 80
SWIDTH 714 0
DWIDTH 5 0
BBX 4 6 0 0
BITMAP
e0
90
e0
80
80
80
ENDCHAR
STARTCHAR C121
ENCODING 81
SWIDTH 714 0
DWIDTH 5 0
BBX 4 7 0 -1
BITMAP
60
90
90
90
b0
60
10
ENDCHAR
STARTCHAR C122
ENCODING 82
SWIDTH 714 0
DWIDTH 5 0
BBX 4 6 0 0
BITMAP
e0
90
e0
90
90
90
ENDCHAR
STARTCHAR C123
ENCODING 83
SWIDTH 714 0
DWIDTH 5 0
BBX 4 6 0 0
BITMAP
60
90
40
20
90
60
ENDCHAR
STARTCHAR C124
ENCODING 84
SWIDTH 714 0
DWIDTH 5 0
BBX 3 6 1 0
BITMAP
e0
40
40
40
40
40
ENDCHAR
STARTCHAR C125
ENCODING 85
SWIDTH 714 0
DWIDTH 5 0
BBX 4 6 0 0
BITMAP
90
90
90
90
90
60
ENDCHAR
STARTCHAR C126
ENCODING 86
SWIDTH 714 0
DWIDTH 5 0
BBX 4 6 0 0
BITMAP
90
90
90
f0
60
60
ENDCHAR
STARTCHAR C127
ENCODING 87
SWIDTH 714 0
DWIDTH 5 0
BBX 4 6 0 0
BITMAP
90
90
90
f0
f0
90
ENDCHAR
STARTCHAR C130
ENCODING 88
SWIDTH 714 0
DWIDTH 5 0
BBX 4 6 0 0
BITMAP
90
90
60
60
90
90
ENDCHAR
STARTCHAR C131
ENCODING 89
SWIDTH 714 0
DWIDTH 5 0
BBX 4 6 0 0
BITMAP
90
90
70
10
90
60
ENDCHAR
STARTCHAR C132
ENCODING 90
SWIDTH 714 0
DWIDTH 5 0
BBX 4 6 0 0
BITMAP
f0
10
20
40
80
f0
ENDCHAR
STARTCHAR C133
ENCODING 91
SWIDTH 714 0
DWIDTH 5 0
BBX 2 6 2 0
BITMAP
c0
80
80
80
80
c0
ENDCHAR
STARTCHAR C134
ENCODING 92
SWIDTH 714 0
DWIDTH 5 0
BBX 4 6 0 0
BITMAP
80
80
40
20
10
10
ENDCHAR
STARTCHAR C135
ENCODING 93
SWIDTH 714 0
DWIDTH 5 0
BBX 2 6 0 0
BITMAP
c0
40
40
40
40
c0
ENDCHAR
STARTCHAR C136
ENCODING 94
SWIDTH 714 0
DWIDTH 5 0
BBX 3 2 1 4
BITMAP
40
a0
ENDCHAR
STARTCHAR C137
ENCODING 95
SWIDTH 714 0
DWIDTH 5 0
BBX 4 1 0 -1
BITMAP
f0
ENDCHAR
STARTCHAR C140
ENCODING 96
SWIDTH 714 0
DWIDTH 5 0
BBX 2 3 1 3
BITMAP
80
80
40
ENDCHAR
STARTCHAR C141
ENCODING 97
SWIDTH 714 0
DWIDTH 5 0
BBX 4 4 0 0
BITMAP
60
10
f0
70
ENDCHAR
STARTCHAR C142
ENCODING 98
SWIDTH 714 0
DWIDTH 5 0
BBX 4 6 0 0
BITMAP
80
80
e0
90
90
e0
ENDCHAR
STARTCHAR C143
ENCODING 99
SWIDTH 714 0
DWIDTH 5 0
BBX 3 4 0 0
BITMAP
60
80
80
60
ENDCHAR
STARTCHAR C144
ENCODING 100
SWIDTH 714 0
DWIDTH 5 0
BBX 4 6 0 0
BITMAP
10
10
70
90
90
70
ENDCHAR
STARTCHAR C145
ENCODING 101
SWIDTH 714 0
DWIDTH 5 0
BBX 4 4 0 0
BITMAP
60
f0
80
60
ENDCHAR
STARTCHAR C146
ENCODING 102
SWIDTH 714 0
DWIDTH 5 0
BBX 4 6 0 0
BITMAP
30
40
e0
40
40
40
ENDCHAR
STARTCHAR C147
ENCODING 103
SWIDTH 714 0
DWIDTH 5 0
BBX 4 6 0 -2
BITMAP
60
90
90
70
10
e0
ENDCHAR
STARTCHAR C150
ENCODING 104
SWIDTH 714 0
DWIDTH 5 0
BBX 4 6 0 0
BITMAP
80
80
e0
90
90
90
ENDCHAR
STARTCHAR C151
ENCODING 105
SWIDTH 714 0
DWIDTH 5 0
BBX 3 6 1 0
BITMAP
40
00
c0
40
40
e0
ENDCHAR
STARTCHAR C152
ENCODING 106
SWIDTH 714 0
DWIDTH 5 0
BBX 3 6 0 0
BITMAP
20
00
60
20
a0
40
ENDCHAR
STARTCHAR C153
ENCODING 107
SWIDTH 714 0
DWIDTH 5 0
BBX 4 6 0 0
BITMAP
80
80
90
e0
a0
90
ENDCHAR
STARTCHAR C154
ENCODING 108
SWIDTH 714 0
DWIDTH 5 0
BBX 3 6 1 0
BITMAP
80
80
80
80
a0
40
ENDCHAR
STARTCHAR C155
ENCODING 109
SWIDTH 714 0
DWIDTH 5 0
BBX 4 4 0 0
BITMAP
60
f0
f0
90
ENDCHAR
STARTCHAR C156
ENCODING 110
SWIDTH 714 0
DWIDTH 5 0
BBX 4 4 0 0
BITMAP
60
90
90
90
ENDCHAR
STARTCHAR C157
ENCODING 111
SWIDTH 714 0
DWIDTH 5 0
BBX 4 4 0 0
BITMAP
60
90
90
60
ENDCHAR
STARTCHAR C160
ENCODING 112
SWIDTH 714 0
DWIDTH 5 0
BBX 4 6 0 -2
BITMAP
60
90
90
e0
80
80
ENDCHAR
STARTCHAR C161
ENCODING 113
SWIDTH 714 0
DWIDTH 5 0
BBX 4 6 0 -2
BITMAP
60
90
90
70
10
10
ENDCHAR
STARTCHAR C162
ENCODING 114
SWIDTH 714 0
DWIDTH 5 0
BBX 4 4 0 0
BITMAP
b0
c0
80
80
ENDCHAR
STARTCHAR C163
ENCODING 115
SWIDTH 714 0
DWIDTH 5 0
BBX 4 4 0 0
BITMAP
70
c0
30
e0
ENDCHAR
STARTCHAR C164
ENCODING 116
SWIDTH 714 0
DWIDTH 5 0
BBX 3 6 1 0
BITMAP
40
40
e0
40
40
20
ENDCHAR
STARTCHAR C165
ENCODING 117
SWIDTH 714 0
DWIDTH 5 0
BBX 4 4 0 0
BITMAP
90
90
90
60
ENDCHAR
STARTCHAR C166
ENCODING 118
SWIDTH 714 0
DWIDTH 5 0
BBX 4 4 0 0
BITMAP
90
90
60
60
ENDCHAR
STARTCHAR C167
ENCODING 119
SWIDTH 714 0
DWIDTH 5 0
BBX 4 4 0 0
BITMAP
90
90
f0
f0
ENDCHAR
STARTCHAR C170
ENCODING 120
SWIDTH 714 0
DWIDTH 5 0
BBX 4 4 0 0
BITMAP
90
60
60
90
ENDCHAR
STARTCHAR C171
ENCODING 121
SWIDTH 714 0
DWIDTH 5 0
BBX 4 6 0 -2
BITMAP
90
90
90
70
10
e0
ENDCHAR
STARTCHAR C172
ENCODING 122
SWIDTH 714 0
DWIDTH 5 0
BBX 4 4 0 0
BITMAP
f0
30
c0
f0
ENDCHAR
STARTCHAR C173
ENCODING 123
SWIDTH 714 0
DWIDTH 5 0
BBX 3 7 1 0
BITMAP
20
40
40
80
40
40
20
ENDCHAR
STARTCHAR C174
ENCODING 124
SWIDTH 714 0
DWIDTH 5 0
BBX 1 7 2 0
BITMAP
80
80
80
00
80
80
80
ENDCHAR
STARTCHAR C175
ENCODING 125
SWIDTH 714 0
DWIDTH 5 0
BBX 3 7 1 0
BITMAP
80
40
40
20
40
40
80
ENDCHAR
STARTCHAR C176
ENCODING 126
SWIDTH 714 0
DWIDTH 5 0
BBX 4 2 0 3
BITMAP
50
a0
ENDCHAR
STARTCHAR C177
ENCODING 127
SWIDTH 714 0
DWIDTH 5 0
BBX 5 9 0 -2
BITMAP
60
88
10
60
88
10
60
88
10
ENDCHAR
STARTCHAR C200
ENCODING 128
SWIDTH 714 0
DWIDTH 5 0
BBX 0 0 0 0
BITMAP
ENDCHAR
STARTCHAR C201
ENCODING 129
SWIDTH 714 0
DWIDTH 5 0
BBX 2 3 0 4
BITMAP
c0
c0
c0
ENDCHAR
STARTCHAR C202
ENCODING 130
SWIDTH 714 0
DWIDTH 5 0
BBX 3 3 2 4
BITMAP
e0
e0
e0
ENDCHAR
STARTCHAR C203
ENCODING 131
SWIDTH 714 0
DWIDTH 5 0
BBX 5 3 0 4
BITMAP
f8
f8
f8
ENDCHAR
STARTCHAR C204
ENCODING 132
SWIDTH 714 0
DWIDTH 5 0
BBX 2 3 0 1
BITMAP
c0
c0
c0
ENDCHAR
STARTCHAR C205
ENCODING 133
SWIDTH 714 0
DWIDTH 5 0
BBX 2 6 0 1
BITMAP
c0
c0
c0
c0
c0
c0
ENDCHAR
STARTCHAR C206
ENCODING 134
SWIDTH 714 0
DWIDTH 5 0
BBX 5 6 0 1
BITMAP
38
38
38
c0
c0
c0
ENDCHAR
STARTCHAR C207
ENCODING 135
SWIDTH 714 0
DWIDTH 5 0
BBX 5 6 0 1
BITMAP
f8
f8
f8
c0
c0
c0
ENDCHAR
STARTCHAR C210
ENCODING 136
SWIDTH 714 0
DWIDTH 5 0
BBX 3 3 2 1
BITMAP
e0
e0
e0
ENDCHAR
STARTCHAR C211
ENCODING 137
SWIDTH 714 0
DWIDTH 5 0
BBX 5 6 0 1
BITMAP
c0
c0
c0
38
38
38
ENDCHAR
STARTCHAR C212
ENCODING 138
SWIDTH 714 0
DWIDTH 5 0
BBX 3 6 2 1
BITMAP
e0
e0
e0
e0
e0
e0
ENDCHAR
STARTCHAR C213
ENCODING 139
SWIDTH 714 0
DWIDTH 5 0
BBX 5 6 0 1
BITMAP
f8
f8
f8
38
38
38
ENDCHAR
STARTCHAR C214
ENCODING 140
SWIDTH 714 0
DWIDTH 5 0
BBX 5 3 0 1
BITMAP
f8
f8
f8
ENDCHAR
STARTCHAR C215
ENCODING 141
SWIDTH 714 0
DWIDTH 5 0
BBX 5 6 0 1
BITMAP
c0
c0
c0
f8
f8
f8
ENDCHAR
STARTCHAR C216
ENCODING 142
SWIDTH 714 0
DWIDTH 5 0
BBX 5 6 0 1
BITMAP
38
38
38
f8
f8
f8
ENDCHAR
STARTCHAR C217
ENCODING 143
SWIDTH 714 0
DWIDTH 5 0
BBX 5 6 0 1
BITMAP
f8
f8
f8
f8
f8
f8
ENDCHAR
STARTCHAR C220
ENCODING 144
SWIDTH 714 0
DWIDTH 5 0
BBX 2 3 0 -2
BITMAP
c0
c0
c0
ENDCHAR
STARTCHAR C221
ENCODING 145
SWIDTH 714 0
DWIDTH 5 0
BBX 2 9 0 -2
BITMAP
c0
c0
c0
00
00
00
c0
c0
c0
ENDCHAR
STARTCHAR C222
ENCODING 146
SWIDTH 714 0
DWIDTH 5 0
BBX 5 9 0 -2
BITMAP
38
38
38
00
00
00
c0
c0
c0
ENDCHAR
STARTCHAR C223
ENCODING 147
SWIDTH 714 0
DWIDTH 5 0
BBX 5 9 0 -2
BITMAP
f8
f8
f8
00
00
00
c0
c0
c0
ENDCHAR
STARTCHAR C224
ENCODING 148
SWIDTH 714 0
DWIDTH 5 0
BBX 2 6 0 -2
BITMAP
c0
c0
c0
c0
c0
c0
ENDCHAR
STARTCHAR C225
ENCODING 149
SWIDTH 714 0
DWIDTH 5 0
BBX 2 9 0 -2
BITMAP
c0
c0
c0
c0
c0
c0
c0
c0
c0
ENDCHAR
STARTCHAR C226
ENCODING 150
SWIDTH 714 0
DWIDTH 5 0
BBX 5 9 0 -2
BITMAP
38
38
38
c0
c0
c0
c0
c0
c0
ENDCHAR
STARTCHAR C227
ENCODING 151
SWIDTH 714 0
DWIDTH 5 0
BBX 5 9 0 -2
BITMAP
f8
f8
f8
c0
c0
c0
c0
c0
c0
ENDCHAR
STARTCHAR C230
ENCODING 152
SWIDTH 714 0
DWIDTH 5 0
BBX 5 6 0 -2
BITMAP
38
38
38
c0
c0
c0
ENDCHAR
STARTCHAR C231
ENCODING 153
SWIDTH 714 0
DWIDTH 5 0
BBX 5 9 0 -2
BITMAP
c0
c0
c0
38
38
38
c0
c0
c0
ENDCHAR
STARTCHAR C232
ENCODING 154
SWIDTH 714 0
DWIDTH 5 0
BBX 5 9 0 -2
BITMAP
38
38
38
38
38
38
c0
c0
c0
ENDCHAR
STARTCHAR C233
ENCODING 155
SWIDTH 714 0
DWIDTH 5 0
BBX 5 9 0 -2
BITMAP
f8
f8
f8
38
38
38
c0
c0
c0
ENDCHAR
STARTCHAR C234
ENCODING 156
SWIDTH 714 0
DWIDTH 5 0
BBX 5 6 0 -2
BITMAP
f8
f8
f8
c0
c0
c0
ENDCHAR
STARTCHAR C235
ENCODING 157
SWIDTH 714 0
DWIDTH 5 0
BBX 5 9 0 -2
BITMAP
c0
c0
c0
f8
f8
f8
c0
c0
c0
ENDCHAR
STARTCHAR C236
ENCODING 158
SWIDTH 714 0
DWIDTH 5 0
BBX 5 9 0 -2
BITMAP
38
38
38
f8
f8
f8
c0
c0
c0
ENDCHAR
STARTCHAR C237
ENCODING 159
SWIDTH 714 0
DWIDTH 5 0
BBX 5 9 0 -2
BITMAP
f8
f8
f8
f8
f8
f8
c0
c0
c0
ENDCHAR
STARTCHAR C240
ENCODING 160
SWIDTH 714 0
DWIDTH 5 0
BBX 0 0 0 0
BITMAP
ENDCHAR
STARTCHAR C241
ENCODING 161
SWIDTH 714 0
DWIDTH 5 0
BBX 3 6 1 0
BITMAP
40
00
c0
40
40
e0
ENDCHAR
STARTCHAR C242
ENCODING 162
SWIDTH 714 0
DWIDTH 5 0
BBX 4 6 0 0
BITMAP
20
70
80
80
70
20
ENDCHAR
STARTCHAR C243
ENCODING 163
SWIDTH 714 0
DWIDTH 5 0
BBX 4 6 0 0
BITMAP
20
50
40
e0
40
f0
ENDCHAR
STARTCHAR C244
ENCODING 164
SWIDTH 714 0
DWIDTH 5 0
BBX 4 9 0 -2
BITMAP
90
90
60
90
90
60
90
90
60
ENDCHAR
STARTCHAR C245
ENCODING 165
SWIDTH 714 0
DWIDTH 5 0
BBX 3 7 1 0
BITMAP
a0
a0
40
e0
40
e0
40
ENDCHAR
STARTCHAR C246
ENCODING 166
SWIDTH 714 0
DWIDTH 5 0
BBX 1 5 1 0
BITMAP
80
80
00
80
80
ENDCHAR
STARTCHAR C247
ENCODING 167
SWIDTH 714 0
DWIDTH 5 0
BBX 4 6 0 0
BITMAP
70
c0
a0
50
30
e0
ENDCHAR
STARTCHAR C250
ENCODING 168
SWIDTH 714 0
DWIDTH 5 0
BBX 3 1 0 5
BITMAP
a0
ENDCHAR
STARTCHAR C251
ENCODING 169
SWIDTH 714 0
DWIDTH 5 0
BBX 4 5 0 0
BITMAP
60
d0
b0
d0
60
ENDCHAR
STARTCHAR C252
ENCODING 170
SWIDTH 714 0
DWIDTH 5 0
BBX 4 6 0 1
BITMAP
60
10
70
90
90
70
ENDCHAR
STARTCHAR C253
ENCODING 171
SWIDTH 714 0
DWIDTH 5 0
BBX 4 3 0 1
BITMAP
50
a0
50
ENDCHAR
STARTCHAR C254
ENCODING 172
SWIDTH 714 0
DWIDTH 5 0
BBX 4 2 0 1
BITMAP
f0
10
ENDCHAR
STARTCHAR C255
ENCODING 173
SWIDTH 714 0
DWIDTH 5 0
BBX 4 1 0 2
BITMAP
f0
ENDCHAR
STARTCHAR C256
ENCODING 174
SWIDTH 714 0
DWIDTH 5 0
BBX 4 5 0 0
BITMAP
60
d0
b0
b0
60
ENDCHAR
STARTCHAR C257
ENCODING 175
SWIDTH 714 0
DWIDTH 5 0
BBX 4 1 0 5
BITMAP
f0
ENDCHAR
STARTCHAR C260
ENCODING 176
SWIDTH 714 0
DWIDTH 5 0
BBX 3 3 1 3
BITMAP
40
a0
40
ENDCHAR
STARTCHAR C261
ENCODING 177
SWIDTH 714 0
DWIDTH 5 0
BBX 3 5 1 0
BITMAP
40
e0
40
00
e0
ENDCHAR
STARTCHAR C262
ENCODING 178
SWIDTH 714 0
DWIDTH 5 0
BBX 2 4 1 3
BITMAP
80
40
80
c0
ENDCHAR
STARTCHAR C263
ENCODING 179
SWIDTH 714 0
DWIDTH 5 0
BBX 2 5 1 2
BITMAP
80
40
80
40
80
ENDCHAR
STARTCHAR C264
ENCODING 180
SWIDTH 714 0
DWIDTH 5 0
BBX 2 3 1 3
BITMAP
40
80
80
ENDCHAR
STARTCHAR C265
ENCODING 181
SWIDTH 714 0
DWIDTH 5 0
BBX 4 6 0 -2
BITMAP
90
90
90
e0
80
80
ENDCHAR
STARTCHAR C266
ENCODING 182
SWIDTH 714 0
DWIDTH 5 0
BBX 4 7 0 -1
BITMAP
f0
d0
d0
d0
50
50
50
ENDCHAR
STARTCHAR C267
ENCODING 183
SWIDTH 714 0
DWIDTH 5 0
BBX 2 2 1 2
BITMAP
c0
c0
ENDCHAR
STARTCHAR C270
ENCODING 184
SWIDTH 714 0
DWIDTH 5 0
BBX 2 3 1 -1
BITMAP
c0
40
80
ENDCHAR
STARTCHAR C271
ENCODING 185
SWIDTH 714 0
DWIDTH 5 0
BBX 2 4 1 3
BITMAP
40
c0
40
40
ENDCHAR
STARTCHAR C272
ENCODING 186
SWIDTH 714 0
DWIDTH 5 0
BBX 4 4 0 1
BITMAP
60
90
90
60
ENDCHAR
STARTCHAR C273
ENCODING 187
SWIDTH 714 0
DWIDTH 5 0
BBX 4 3 0 1
BITMAP
a0
50
a0
ENDCHAR
STARTCHAR C274
ENCODING 188
SWIDTH 714 0
DWIDTH 5 0
BBX 4 5 0 0
BITMAP
90
30
60
c0
90
ENDCHAR
STARTCHAR C275
ENCODING 189
SWIDTH 714 0
DWIDTH 5 0
BBX 4 5 0 0
BITMAP
90
30
60
c0
90
ENDCHAR
STARTCHAR C276
ENCODING 190
SWIDTH 714 0
DWIDTH 5 0
BBX 4 5 0 0
BITMAP
90
30
60
c0
90
ENDCHAR
STARTCHAR C277
ENCODING 191
SWIDTH 714 0
DWIDTH 5 0
BBX 4 6 0 0
BITMAP
40
00
60
10
90
60
ENDCHAR
STARTCHAR C300
ENCODING 192
SWIDTH 714 0
DWIDTH 5 0
BBX 4 7 0 0
BITMAP
c0
00
60
90
f0
90
90
ENDCHAR
STARTCHAR C301
ENCODING 193
SWIDTH 714 0
DWIDTH 5 0
BBX 4 7 0 0
BITMAP
30
00
60
90
f0
90
90
ENDCHAR
STARTCHAR C302
ENCODING 194
SWIDTH 714 0
DWIDTH 5 0
BBX 4 7 0 0
BITMAP
60
90
60
90
f0
90
90
ENDCHAR
STARTCHAR C303
ENCODING 195
SWIDTH 714 0
DWIDTH 5 0
BBX 4 7 0 0
BITMAP
50
a0
60
90
f0
90
90
ENDCHAR
STARTCHAR C304
ENCODING 196
SWIDTH 714 0
DWIDTH 5 0
BBX 4 7 0 0
BITMAP
90
00
60
90
f0
90
90
ENDCHAR
STARTCHAR C305
ENCODING 197
SWIDTH 714 0
DWIDTH 5 0
BBX 4 7 0 0
BITMAP
60
00
60
90
f0
90
90
ENDCHAR
STARTCHAR C306
ENCODING 198
SWIDTH 714 0
DWIDTH 5 0
BBX 4 6 0 0
BITMAP
70
a0
f0
a0
a0
b0
ENDCHAR
STARTCHAR C307
ENCODING 199
SWIDTH 714 0
DWIDTH 5 0
BBX 4 8 0 -2
BITMAP
60
90
80
80
90
60
20
40
ENDCHAR
STARTCHAR C310
ENCODING 200
SWIDTH 714 0
DWIDTH 5 0
BBX 4 7 0 0
BITMAP
c0
00
f0
80
e0
80
f0
ENDCHAR
STARTCHAR C311
ENCODING 201
SWIDTH 714 0
DWIDTH 5 0
BBX 4 7 0 0
BITMAP
30
00
f0
80
e0
80
f0
ENDCHAR
STARTCHAR C312
ENCODING 202
SWIDTH 714 0
DWIDTH 5 0
BBX 4 7 0 0
BITMAP
50
a0
f0
80
e0
80
f0
ENDCHAR
STARTCHAR C313
ENCODING 203
SWIDTH 714 0
DWIDTH 5 0
BBX 4 7 0 0
BITMAP
90
00
f0
80
e0
80
f0
ENDCHAR
STARTCHAR C314
ENCODING 204
SWIDTH 714 0
DWIDTH 5 0
BBX 3 7 1 0
BITMAP
80
40
00
e0
40
40
e0
ENDCHAR
STARTCHAR C315
ENCODING 205
SWIDTH 714 0
DWIDTH 5 0
BBX 3 7 1 0
BITMAP
20
40
00
e0
40
40
e0
ENDCHAR
STARTCHAR C316
ENCODING 206
SWIDTH 714 0
DWIDTH 5 0
BBX 3 7 1 0
BITMAP
40
a0
00
e0
40
40
e0
ENDCHAR
STARTCHAR C317
ENCODING 207
SWIDTH 714 0
DWIDTH 5 0
BBX 3 6 1 0
BITMAP
a0
00
e0
40
40
e0
ENDCHAR
STARTCHAR C320
ENCODING 208
SWIDTH 714 0
DWIDTH 5 0
BBX 4 6 0 0
BITMAP
e0
90
d0
90
90
e0
ENDCHAR
STARTCHAR C321
ENCODING 209
SWIDTH 714 0
DWIDTH 5 0
BBX 4 7 0 0
BITMAP
50
a0
90
d0
f0
b0
90
ENDCHAR
STARTCHAR C322
ENCODING 210
SWIDTH 714 0
DWIDTH 5 0
BBX 4 7 0 0
BITMAP
40
20
60
90
90
90
60
ENDCHAR
STARTCHAR C323
ENCODING 211
SWIDTH 714 0
DWIDTH 5 0
BBX 4 7 0 0
BITMAP
20
40
60
90
90
90
60
ENDCHAR
STARTCHAR C324
ENCODING 212
SWIDTH 714 0
DWIDTH 5 0
BBX 4 7 0 0
BITMAP
60
90
60
90
90
90
60
ENDCHAR
STARTCHAR C325
ENCODING 213
SWIDTH 714 0
DWIDTH 5 0
BBX 4 7 0 0
BITMAP
50
a0
60
90
90
90
60
ENDCHAR
STARTCHAR C326
ENCODING 214
SWIDTH 714 0
DWIDTH 5 0
BBX 4 7 0 0
BITMAP
90
00
60
90
90
90
60
ENDCHAR
STARTCHAR C327
ENCODING 215
SWIDTH 714 0
DWIDTH 5 0
BBX 4 4 0 1
BITMAP
90
60
60
90
ENDCHAR
STARTCHAR C330
ENCODING 216
SWIDTH 714 0
DWIDTH 5 0
BBX 4 6 0 0
BITMAP
60
90
a0
50
90
60
ENDCHAR
STARTCHAR C331
ENCODING 217
SWIDTH 714 0
DWIDTH 5 0
BBX 4 7 0 0
BITMAP
80
40
90
90
90
90
60
ENDCHAR
STARTCHAR C332
ENCODING 218
SWIDTH 714 0
DWIDTH 5 0
BBX 4 7 0 0
BITMAP
10
20
90
90
90
90
60
ENDCHAR
STARTCHAR C333
ENCODING 219
SWIDTH 714 0
DWIDTH 5 0
BBX 4 7 0 0
BITMAP
60
00
90
90
90
90
60
ENDCHAR
STARTCHAR C334
ENCODING 220
SWIDTH 714 0
DWIDTH 5 0
BBX 4 7 0 0
BITMAP
90
00
90
90
90
90
60
ENDCHAR
STARTCHAR C335
ENCODING 221
SWIDTH 714 0
DWIDTH 5 0
BBX 4 7 0 0
BITMAP
10
20
90
90
90
90
60
ENDCHAR
STARTCHAR C336
ENCODING 222
SWIDTH 714 0
DWIDTH 5 0
BBX 4 6 0 0
BITMAP
80
e0
90
e0
80
80
ENDCHAR
STARTCHAR C337
ENCODING 223
SWIDTH 714 0
DWIDTH 5 0
BBX 4 7 0 -1
BITMAP
60
90
a0
90
90
a0
80
ENDCHAR
STARTCHAR C340
ENCODING 224
SWIDTH 714 0
DWIDTH 5 0
BBX 4 7 0 0
BITMAP
40
20
00
60
10
f0
70
ENDCHAR
STARTCHAR C341
ENCODING 225
SWIDTH 714 0
DWIDTH 5 0
BBX 4 7 0 0
BITMAP
20
40
00
60
10
f0
70
ENDCHAR
STARTCHAR C342
ENCODING 226
SWIDTH 714 0
DWIDTH 5 0
BBX 4 7 0 0
BITMAP
20
50
00
60
10
f0
70
ENDCHAR
STARTCHAR C343
ENCODING 227
SWIDTH 714 0
DWIDTH 5 0
BBX 4 7 0 0
BITMAP
50
a0
00
60
10
f0
70
ENDCHAR
STARTCHAR C344
ENCODING 228
SWIDTH 714 0
DWIDTH 5 0
BBX 4 6 0 0
BITMAP
50
00
60
10
f0
70
ENDCHAR
STARTCHAR C345
ENCODING 229
SWIDTH 714 0
DWIDTH 5 0
BBX 4 7 0 0
BITMAP
20
50
20
60
10
f0
70
ENDCHAR
STARTCHAR C346
ENCODING 230
SWIDTH 714 0
DWIDTH 5 0
BBX 4 4 0 0
BITMAP
70
b0
a0
70
ENDCHAR
STARTCHAR C347
ENCODING 231
SWIDTH 714 0
DWIDTH 5 0
BBX 3 6 0 -2
BITMAP
60
80
80
60
40
80
ENDCHAR
STARTCHAR C350
ENCODING 232
SWIDTH 714 0
DWIDTH 5 0
BBX 4 7 0 0
BITMAP
40
20
00
60
f0
80
60
ENDCHAR
STARTCHAR C351
ENCODING 233
SWIDTH 714 0
DWIDTH 5 0
BBX 4 7 0 0
BITMAP
20
40
00
60
f0
80
60
ENDCHAR
STARTCHAR C352
ENCODING 234
SWIDTH 714 0
DWIDTH 5 0
BBX 4 7 0 0
BITMAP
20
50
00
60
f0
80
60
ENDCHAR
STARTCHAR C353
ENCODING 235
SWIDTH 714 0
DWIDTH 5 0
BBX 4 6 0 0
BITMAP
50
00
60
f0
80
60
ENDCHAR
STARTCHAR C354
ENCODING 236
SWIDTH 714 0
DWIDTH 5 0
BBX 3 7 1 0
BITMAP
80
40
00
c0
40
40
e0
ENDCHAR
STARTCHAR C355
ENCODING 237
SWIDTH 714 0
DWIDTH 5 0
BBX 3 7 1 0
BITMAP
20
40
00
c0
40
40
e0
ENDCHAR
STARTCHAR C356
ENCODING 238
SWIDTH 714 0
DWIDTH 5 0
BBX 3 7 1 0
BITMAP
40
a0
00
c0
40
40
e0
ENDCHAR
STARTCHAR C357
ENCODING 239
SWIDTH 714 0
DWIDTH 5 0
BBX 3 6 1 0
BITMAP
a0
00
c0
40
40
e0
ENDCHAR
STARTCHAR C360
ENCODING 240
SWIDTH 714 0
DWIDTH 5 0
BBX 4 7 0 0
BITMAP
40
20
10
70
90
90
60
ENDCHAR
STARTCHAR C361
ENCODING 241
SWIDTH 714 0
DWIDTH 5 0
BBX 4 7 0 0
BITMAP
50
a0
00
60
90
90
90
ENDCHAR
STARTCHAR C362
ENCODING 242
SWIDTH 714 0
DWIDTH 5 0
BBX 4 7 0 0
BITMAP
40
20
00
60
90
90
60
ENDCHAR
STARTCHAR C363
ENCODING 243
SWIDTH 714 0
DWIDTH 5 0
BBX 4 7 0 0
BITMAP
20
40
00
60
90
90
60
ENDCHAR
STARTCHAR C364
ENCODING 244
SWIDTH 714 0
DWIDTH 5 0
BBX 4 7 0 0
BITMAP
60
90
00
60
90
90
60
ENDCHAR
STARTCHAR C365
ENCODING 245
SWIDTH 714 0
DWIDTH 5 0
BBX 4 7 0 0
BITMAP
50
a0
00
60
90
90
60
ENDCHAR
STARTCHAR C366
ENCODING 246
SWIDTH 714 0
DWIDTH 5 0
BBX 4 6 0 0
BITMAP
90
00
60
90
90
60
ENDCHAR
STARTCHAR C367
ENCODING 247
SWIDTH 714 0
DWIDTH 5 0
BBX 4 5 0 1
BITMAP
40
00
f0
00
20
ENDCHAR
STARTCHAR C370
ENCODING 248
SWIDTH 714 0
DWIDTH 5 0
BBX 4 4 0 0
BITMAP
60
b0
d0
60
ENDCHAR
STARTCHAR C371
ENCODING 249
SWIDTH 714 0
DWIDTH 5 0
BBX 4 7 0 0
BITMAP
40
20
00
90
90
90
60
ENDCHAR
STARTCHAR C372
ENCODING 250
SWIDTH 714 0
DWIDTH 5 0
BBX 4 7 0 0
BITMAP
20
40
00
90
90
90
60
ENDCHAR
STARTCHAR C373
ENCODING 251
SWIDTH 714 0
DWIDTH 5 0
BBX 4 7 0 0
BITMAP
60
90
00
90
90
90
60
ENDCHAR
STARTCHAR C374
ENCODING 252
SWIDTH 714 0
DWIDTH 5 0
BBX 4 6 0 0
BITMAP
90
00
90
90
90
60
ENDCHAR
STARTCHAR C375
ENCODING 253
SWIDTH 714 0
DWIDTH 5 0
BBX 4 9 0 -2
BITMAP
20
40
00
90
90
90
70
10
e0
ENDCHAR
STARTCHAR C376
ENCODING 254
SWIDTH 714 0
DWIDTH 5 0
BBX 4 6 0 0
BITMAP
80
e0
90
90
e0
80
ENDCHAR
STARTCHAR C377
ENCODING 255
SWIDTH 714 0
DWIDTH 5 0
BBX 4 8 0 -2
BITMAP
90
00
90
90
90
70
10
e0
ENDCHAR
ENDFONT
